<?xml version="1.0" encoding="UTF-8"?>
<!DOCTYPE svg
  PUBLIC '-//W3C//DTD SVG 1.1//EN'
  'http://www.w3.org/Graphics/SVG/1.1/DTD/svg11.dtd'>
<svg version="1.1" xmlns="http://www.w3.org/2000/svg" width="26.600mm" height="11.258mm">
    <!--Autogenerated with python-barcode 0.15.1-->
    <g id="barcode_group">
        <rect width="100%" height="100%" style="fill:white"/>
        <rect x="1.000mm" y="1.000mm" width="0.400mm" height="6.000mm" style="fill:black;"/>
        <rect x="1.600mm" y="1.000mm" width="0.200mm" height="6.000mm" style="fill:black;"/>
        <rect x="2.200mm" y="1.000mm" width="0.600mm" height="6.000mm" style="fill:black;"/>
        <rect x="3.200mm" y="1.000mm" width="0.200mm" height="6.000mm" style="fill:black;"/>
        <rect x="3.800mm" y="1.000mm" width="0.400mm" height="6.000mm" style="fill:black;"/>
        <rect x="5.000mm" y="1.000mm" width="0.200mm" height="6.000mm" style="fill:black;"/>
        <rect x="5.400mm" y="1.000mm" width="0.200mm" height="6.000mm" style="fill:black;"/>
        <rect x="5.800mm" y="1.000mm" width="0.200mm" height="6.000mm" style="fill:black;"/>
        <rect x="6.400mm" y="1.000mm" width="0.800mm" height="6.000mm" style="fill:black;"/>
        <rect x="7.600mm" y="1.000mm" width="0.400mm" height="6.000mm" style="fill:black;"/>
        <rect x="8.400mm" y="1.000mm" width="0.400mm" height="6.000mm" style="fill:black;"/>
        <rect x="9.000mm" y="1.000mm" width="0.400mm" height="6.000mm" style="fill:black;"/>
        <rect x="9.800mm" y="1.000mm" width="0.800mm" height="6.000mm" style="fill:black;"/>
        <rect x="10.800mm" y="1.000mm" width="0.200mm" height="6.000mm" style="fill:black;"/>
        <rect x="11.600mm" y="1.000mm" width="0.200mm" height="6.000mm" style="fill:black;"/>
        <rect x="12.000mm" y="1.000mm" width="0.600mm" height="6.000mm" style="fill:black;"/>
        <rect x="12.800mm" y="1.000mm" width="0.600mm" height="6.000mm" style="fill:black;"/>
        <rect x="13.600mm" y="1.000mm" width="0.400mm" height="6.000mm" style="fill:black;"/>
        <rect x="14.200mm" y="1.000mm" width="0.800mm" height="6.000mm" style="fill:black;"/>
        <rect x="15.400mm" y="1.000mm" width="0.200mm" height="6.000mm" style="fill:black;"/>
        <rect x="15.800mm" y="1.000mm" width="0.200mm" height="6.000mm" style="fill:black;"/>
        <rect x="16.400mm" y="1.000mm" width="0.200mm" height="6.000mm" style="fill:black;"/>
        <rect x="16.800mm" y="1.000mm" width="0.600mm" height="6.000mm" style="fill:black;"/>
        <rect x="17.800mm" y="1.000mm" width="0.400mm" height="6.000mm" style="fill:black;"/>
        <rect x="18.600mm" y="1.000mm" width="0.600mm" height="6.000mm" style="fill:black;"/>
        <rect x="19.400mm" y="1.000mm" width="0.800mm" height="6.000mm" style="fill:black;"/>
        <rect x="20.400mm" y="1.000mm" width="0.200mm" height="6.000mm" style="fill:black;"/>
        <rect x="20.800mm" y="1.000mm" width="0.400mm" height="6.000mm" style="fill:black;"/>
        <rect x="21.600mm" y="1.000mm" width="0.200mm" height="6.000mm" style="fill:black;"/>
        <rect x="22.000mm" y="1.000mm" width="0.600mm" height="6.000mm" style="fill:black;"/>
        <rect x="23.000mm" y="1.000mm" width="0.400mm" height="6.000mm" style="fill:black;"/>
        <rect x="24.000mm" y="1.000mm" width="0.600mm" height="6.000mm" style="fill:black;"/>
        <rect x="24.800mm" y="1.000mm" width="0.200mm" height="6.000mm" style="fill:black;"/>
        <rect x="25.200mm" y="1.000mm" width="0.400mm" height="6.000mm" style="fill:black;"/>
        <text x="13.300mm" y="9.200mm" style="fill:black;font-size:6pt;text-anchor:middle;">7280019848871560</text>
    </g>
</svg>
